<mxfile host="app.diagrams.net" agent="Mozilla/5.0 (Windows NT 10.0; Win64; x64) AppleWebKit/537.36 (KHTML, like Gecko) Chrome/134.0.0.0 Safari/537.36" version="26.1.1">
  <diagram name="PÃ¡gina-1" id="O9ASEj95bYdIulQXw0iR">
    <mxGraphModel dx="989" dy="532" grid="1" gridSize="10" guides="1" tooltips="1" connect="1" arrows="1" fold="1" page="1" pageScale="1" pageWidth="827" pageHeight="1169" math="0" shadow="0">
      <root>
        <mxCell id="0" />
        <mxCell id="1" parent="0" />
        <mxCell id="5qcY-jDRENihyVGYr1Om-2" value="PMD Calculation Flow" style="swimlane;html=1;startSize=40;horizontal=0;childLayout=flowLayout;flowOrientation=west;resizable=0;interRankCellSpacing=50;containerType=tree;fontSize=12;" vertex="1" parent="1">
          <mxGeometry x="100" y="300" width="480" height="150" as="geometry" />
        </mxCell>
        <mxCell id="5qcY-jDRENihyVGYr1Om-3" value="PMS Data" style="whiteSpace=wrap;html=1;" vertex="1" parent="5qcY-jDRENihyVGYr1Om-2">
          <mxGeometry x="60" y="55" width="100" height="40" as="geometry" />
        </mxCell>
        <mxCell id="5qcY-jDRENihyVGYr1Om-4" value="PMD Generator Tool" style="whiteSpace=wrap;html=1;" vertex="1" parent="5qcY-jDRENihyVGYr1Om-2">
          <mxGeometry x="210" y="20" width="100" height="40" as="geometry" />
        </mxCell>
        <mxCell id="5qcY-jDRENihyVGYr1Om-5" value="" style="html=1;rounded=1;curved=0;sourcePerimeterSpacing=0;targetPerimeterSpacing=0;startSize=6;endSize=6;noEdgeStyle=1;orthogonal=1;" edge="1" parent="5qcY-jDRENihyVGYr1Om-2" source="5qcY-jDRENihyVGYr1Om-3" target="5qcY-jDRENihyVGYr1Om-4">
          <mxGeometry relative="1" as="geometry">
            <Array as="points">
              <mxPoint x="172" y="67.5" />
              <mxPoint x="198" y="40" />
            </Array>
          </mxGeometry>
        </mxCell>
        <mxCell id="5qcY-jDRENihyVGYr1Om-6" value="Task" style="whiteSpace=wrap;html=1;" vertex="1" parent="5qcY-jDRENihyVGYr1Om-2">
          <mxGeometry x="210" y="90" width="100" height="40" as="geometry" />
        </mxCell>
        <mxCell id="5qcY-jDRENihyVGYr1Om-7" value="" style="html=1;rounded=1;curved=0;sourcePerimeterSpacing=0;targetPerimeterSpacing=0;startSize=6;endSize=6;noEdgeStyle=1;orthogonal=1;" edge="1" parent="5qcY-jDRENihyVGYr1Om-2" source="5qcY-jDRENihyVGYr1Om-3" target="5qcY-jDRENihyVGYr1Om-6">
          <mxGeometry relative="1" as="geometry">
            <Array as="points">
              <mxPoint x="172" y="82.5" />
              <mxPoint x="198" y="110" />
            </Array>
          </mxGeometry>
        </mxCell>
        <mxCell id="5qcY-jDRENihyVGYr1Om-8" value="End" style="whiteSpace=wrap;html=1;" vertex="1" parent="5qcY-jDRENihyVGYr1Om-2">
          <mxGeometry x="360" y="55" width="100" height="40" as="geometry" />
        </mxCell>
        <mxCell id="5qcY-jDRENihyVGYr1Om-9" value="" style="html=1;rounded=1;curved=0;sourcePerimeterSpacing=0;targetPerimeterSpacing=0;startSize=6;endSize=6;noEdgeStyle=1;orthogonal=1;" edge="1" parent="5qcY-jDRENihyVGYr1Om-2" source="5qcY-jDRENihyVGYr1Om-4" target="5qcY-jDRENihyVGYr1Om-8">
          <mxGeometry relative="1" as="geometry">
            <Array as="points">
              <mxPoint x="322" y="40" />
              <mxPoint x="348" y="67.5" />
            </Array>
          </mxGeometry>
        </mxCell>
        <mxCell id="5qcY-jDRENihyVGYr1Om-10" value="" style="html=1;rounded=1;curved=0;sourcePerimeterSpacing=0;targetPerimeterSpacing=0;startSize=6;endSize=6;noEdgeStyle=1;orthogonal=1;" edge="1" parent="5qcY-jDRENihyVGYr1Om-2" source="5qcY-jDRENihyVGYr1Om-6" target="5qcY-jDRENihyVGYr1Om-8">
          <mxGeometry relative="1" as="geometry">
            <Array as="points">
              <mxPoint x="322" y="110" />
              <mxPoint x="348" y="82.5" />
            </Array>
          </mxGeometry>
        </mxCell>
      </root>
    </mxGraphModel>
  </diagram>
</mxfile>
